<svg width="34" height="626" viewBox="0 0 34 626" fill="none" xmlns="http://www.w3.org/2000/svg">
<path d="M16.5 23.5009C16.5 23.777 16.7239 24.0009 17 24.0009C17.2761 24.0009 17.5 23.777 17.5 23.5009L16.5 23.5009ZM17.5 28.5095C17.5 28.2333 17.2761 28.0095 17 28.0095C16.7239 28.0095 16.5 28.2333 16.5 28.5095L17.5 28.5095ZM16.5 29.5112C16.5 29.7873 16.7239 30.0112 17 30.0112C17.2761 30.0112 17.5 29.7873 17.5 29.5112L16.5 29.5112ZM17.5 34.5198C17.5 34.2436 17.2761 34.0198 17 34.0198C16.7239 34.0198 16.5 34.2436 16.5 34.5198L17.5 34.5198ZM16.5 35.5215C16.5 35.7976 16.7239 36.0215 17 36.0215C17.2761 36.0215 17.5 35.7976 17.5 35.5215L16.5 35.5215ZM17.5 40.5301C17.5 40.2539 17.2761 40.0301 17 40.0301C16.7239 40.0301 16.5 40.2539 16.5 40.5301L17.5 40.5301ZM16.5 41.5318C16.5 41.8079 16.7239 42.0318 17 42.0318C17.2761 42.0318 17.5 41.8079 17.5 41.5318L16.5 41.5318ZM17.5 46.5404C17.5 46.2642 17.2761 46.0404 17 46.0404C16.7239 46.0404 16.5 46.2642 16.5 46.5404L17.5 46.5404ZM16.5 47.5421C16.5 47.8182 16.7239 48.0421 17 48.0421C17.2761 48.0421 17.5 47.8182 17.5 47.5421L16.5 47.5421ZM17.5 52.5507C17.5 52.2745 17.2761 52.0507 17 52.0507C16.7239 52.0507 16.5 52.2745 16.5 52.5507L17.5 52.5507ZM16.5 53.5524C16.5 53.8286 16.7239 54.0524 17 54.0524C17.2761 54.0524 17.5 53.8286 17.5 53.5524L16.5 53.5524ZM17.5 58.561C17.5 58.2849 17.2761 58.061 17 58.061C16.7239 58.061 16.5 58.2849 16.5 58.561L17.5 58.561ZM16.5 59.5627C16.5 59.8389 16.7239 60.0627 17 60.0627C17.2761 60.0627 17.5 59.8389 17.5 59.5627L16.5 59.5627ZM17.5 64.5713C17.5 64.2952 17.2761 64.0713 17 64.0713C16.7239 64.0713 16.5 64.2952 16.5 64.5713L17.5 64.5713ZM16.5 65.573C16.5 65.8492 16.7239 66.073 17 66.073C17.2761 66.073 17.5 65.8492 17.5 65.573L16.5 65.573ZM17.5 70.5816C17.5 70.3055 17.2761 70.0816 17 70.0816C16.7239 70.0816 16.5 70.3055 16.5 70.5816L17.5 70.5816ZM16.5 71.5833C16.5 71.8595 16.7239 72.0833 17 72.0833C17.2761 72.0833 17.5 71.8595 17.5 71.5833L16.5 71.5833ZM17.5 76.5919C17.5 76.3158 17.2761 76.0919 17 76.0919C16.7239 76.0919 16.5 76.3158 16.5 76.5919L17.5 76.5919ZM16.5 77.5936C16.5 77.8698 16.7239 78.0936 17 78.0936C17.2761 78.0936 17.5 77.8698 17.5 77.5936L16.5 77.5936ZM17.5 82.6022C17.5 82.3261 17.2761 82.1022 17 82.1022C16.7239 82.1022 16.5 82.3261 16.5 82.6022L17.5 82.6022ZM16.5 83.6039C16.5 83.8801 16.7239 84.1039 17 84.1039C17.2761 84.1039 17.5 83.8801 17.5 83.6039L16.5 83.6039ZM17.5 88.6125C17.5 88.3364 17.2761 88.1125 17 88.1125C16.7239 88.1125 16.5 88.3364 16.5 88.6125L17.5 88.6125ZM16.5 89.6143C16.5 89.8904 16.7239 90.1143 17 90.1143C17.2761 90.1143 17.5 89.8904 17.5 89.6143L16.5 89.6143ZM17.5 94.6228C17.5 94.3467 17.2761 94.1228 17 94.1228C16.7239 94.1228 16.5 94.3467 16.5 94.6228L17.5 94.6228ZM16.5 95.6246C16.5 95.9007 16.7239 96.1246 17 96.1246C17.2761 96.1246 17.5 95.9007 17.5 95.6246L16.5 95.6246ZM17.5 100.633C17.5 100.357 17.2761 100.133 17 100.133C16.7239 100.133 16.5 100.357 16.5 100.633L17.5 100.633ZM16.5 101.635C16.5 101.911 16.7239 102.135 17 102.135C17.2761 102.135 17.5 101.911 17.5 101.635L16.5 101.635ZM17.5 106.643C17.5 106.367 17.2761 106.143 17 106.143C16.7239 106.143 16.5 106.367 16.5 106.643L17.5 106.643ZM16.5 107.645C16.5 107.921 16.7239 108.145 17 108.145C17.2761 108.145 17.5 107.921 17.5 107.645L16.5 107.645ZM17.5 112.654C17.5 112.378 17.2761 112.154 17 112.154C16.7239 112.154 16.5 112.378 16.5 112.654L17.5 112.654ZM16.5 113.655C16.5 113.932 16.7239 114.155 17 114.155C17.2761 114.155 17.5 113.932 17.5 113.655L16.5 113.655ZM17.5 118.664C17.5 118.388 17.2761 118.164 17 118.164C16.7239 118.164 16.5 118.388 16.5 118.664L17.5 118.664ZM16.5 119.666C16.5 119.942 16.7239 120.166 17 120.166C17.2761 120.166 17.5 119.942 17.5 119.666L16.5 119.666ZM17.5 124.674C17.5 124.398 17.2761 124.174 17 124.174C16.7239 124.174 16.5 124.398 16.5 124.674L17.5 124.674ZM16.5 125.676C16.5 125.952 16.7239 126.176 17 126.176C17.2761 126.176 17.5 125.952 17.5 125.676L16.5 125.676ZM17.5 130.685C17.5 130.409 17.2761 130.185 17 130.185C16.7239 130.185 16.5 130.409 16.5 130.685L17.5 130.685ZM16.5 131.686C16.5 131.963 16.7239 132.186 17 132.186C17.2761 132.186 17.5 131.963 17.5 131.686L16.5 131.686ZM17.5 136.695C17.5 136.419 17.2761 136.195 17 136.195C16.7239 136.195 16.5 136.419 16.5 136.695L17.5 136.695ZM16.5 137.697C16.5 137.973 16.7239 138.197 17 138.197C17.2761 138.197 17.5 137.973 17.5 137.697L16.5 137.697ZM17.5 142.705C17.5 142.429 17.2761 142.205 17 142.205C16.7239 142.205 16.5 142.429 16.5 142.705L17.5 142.705ZM16.5 143.707C16.5 143.983 16.7239 144.207 17 144.207C17.2761 144.207 17.5 143.983 17.5 143.707L16.5 143.707ZM17.5 148.716C17.5 148.439 17.2761 148.216 17 148.216C16.7239 148.216 16.5 148.439 16.5 148.716L17.5 148.716ZM16.5 149.717C16.5 149.993 16.7239 150.217 17 150.217C17.2761 150.217 17.5 149.993 17.5 149.717L16.5 149.717ZM17.5 154.726C17.5 154.45 17.2761 154.226 17 154.226C16.7239 154.226 16.5 154.45 16.5 154.726L17.5 154.726ZM16.5 155.728C16.5 156.004 16.7239 156.228 17 156.228C17.2761 156.228 17.5 156.004 17.5 155.728L16.5 155.728ZM17.5 160.736C17.5 160.46 17.2761 160.236 17 160.236C16.7239 160.236 16.5 160.46 16.5 160.736L17.5 160.736ZM16.5 161.738C16.5 162.014 16.7239 162.238 17 162.238C17.2761 162.238 17.5 162.014 17.5 161.738L16.5 161.738ZM17.5 166.747C17.5 166.47 17.2761 166.247 17 166.247C16.7239 166.247 16.5 166.47 16.5 166.747L17.5 166.747ZM16.5 167.748C16.5 168.024 16.7239 168.248 17 168.248C17.2761 168.248 17.5 168.024 17.5 167.748L16.5 167.748ZM17.5 172.757C17.5 172.481 17.2761 172.257 17 172.257C16.7239 172.257 16.5 172.481 16.5 172.757L17.5 172.757ZM16.5 173.759C16.5 174.035 16.7239 174.259 17 174.259C17.2761 174.259 17.5 174.035 17.5 173.759L16.5 173.759ZM17.5 178.767C17.5 178.491 17.2761 178.267 17 178.267C16.7239 178.267 16.5 178.491 16.5 178.767L17.5 178.767ZM16.5 179.769C16.5 180.045 16.7239 180.269 17 180.269C17.2761 180.269 17.5 180.045 17.5 179.769L16.5 179.769ZM17.5 184.778C17.5 184.501 17.2761 184.278 17 184.278C16.7239 184.278 16.5 184.501 16.5 184.778L17.5 184.778ZM16.5 185.779C16.5 186.055 16.7239 186.279 17 186.279C17.2761 186.279 17.5 186.055 17.5 185.779L16.5 185.779ZM17.5 190.788C17.5 190.512 17.2761 190.288 17 190.288C16.7239 190.288 16.5 190.512 16.5 190.788L17.5 190.788ZM16.5 191.79C16.5 192.066 16.7239 192.29 17 192.29C17.2761 192.29 17.5 192.066 17.5 191.79L16.5 191.79ZM17.5 196.798C17.5 196.522 17.2761 196.298 17 196.298C16.7239 196.298 16.5 196.522 16.5 196.798L17.5 196.798ZM16.5 197.8C16.5 198.076 16.7238 198.3 17 198.3C17.2761 198.3 17.5 198.076 17.5 197.8L16.5 197.8ZM17.5 202.808C17.5 202.532 17.2761 202.308 17 202.308C16.7238 202.308 16.5 202.532 16.5 202.808L17.5 202.808ZM16.5 203.81C16.5 204.086 16.7238 204.31 17 204.31C17.2761 204.31 17.5 204.086 17.5 203.81L16.5 203.81ZM17.5 208.819C17.5 208.543 17.2761 208.319 17 208.319C16.7238 208.319 16.5 208.543 16.5 208.819L17.5 208.819ZM16.5 209.82C16.5 210.097 16.7238 210.32 17 210.32C17.2761 210.32 17.5 210.097 17.5 209.82L16.5 209.82ZM17.5 214.829C17.5 214.553 17.2761 214.329 17 214.329C16.7238 214.329 16.5 214.553 16.5 214.829L17.5 214.829ZM16.5 215.831C16.5 216.107 16.7238 216.331 17 216.331C17.2761 216.331 17.5 216.107 17.5 215.831L16.5 215.831ZM17.5 220.839C17.5 220.563 17.2761 220.339 17 220.339C16.7238 220.339 16.5 220.563 16.5 220.839L17.5 220.839ZM16.5 221.841C16.5 222.117 16.7238 222.341 17 222.341C17.2761 222.341 17.5 222.117 17.5 221.841L16.5 221.841ZM17.5 226.85C17.5 226.574 17.2761 226.35 17 226.35C16.7238 226.35 16.5 226.574 16.5 226.85L17.5 226.85ZM16.5 227.851C16.5 228.128 16.7238 228.351 17 228.351C17.2761 228.351 17.5 228.128 17.5 227.851L16.5 227.851ZM17.5 232.86C17.5 232.584 17.2761 232.36 17 232.36C16.7238 232.36 16.5 232.584 16.5 232.86L17.5 232.86ZM16.5 233.862C16.5 234.138 16.7238 234.362 17 234.362C17.2761 234.362 17.5 234.138 17.5 233.862L16.5 233.862ZM17.5 238.87C17.5 238.594 17.2761 238.37 17 238.37C16.7238 238.37 16.5 238.594 16.5 238.87L17.5 238.87ZM16.5 239.872C16.5 240.148 16.7238 240.372 17 240.372C17.2761 240.372 17.5 240.148 17.5 239.872L16.5 239.872ZM17.5 244.881C17.5 244.605 17.2761 244.381 17 244.381C16.7238 244.381 16.5 244.605 16.5 244.881L17.5 244.881ZM16.5 245.882C16.5 246.159 16.7238 246.382 17 246.382C17.2761 246.382 17.5 246.159 17.5 245.882L16.5 245.882ZM17.5 250.891C17.5 250.615 17.2761 250.391 17 250.391C16.7238 250.391 16.5 250.615 16.5 250.891L17.5 250.891ZM16.5 251.893C16.5 252.169 16.7238 252.393 17 252.393C17.2761 252.393 17.5 252.169 17.5 251.893L16.5 251.893ZM17.5 256.901C17.5 256.625 17.2761 256.401 17 256.401C16.7238 256.401 16.5 256.625 16.5 256.901L17.5 256.901ZM16.5 257.903C16.5 258.179 16.7238 258.403 17 258.403C17.2761 258.403 17.5 258.179 17.5 257.903L16.5 257.903ZM17.5 262.912C17.5 262.635 17.2761 262.412 17 262.412C16.7238 262.412 16.5 262.635 16.5 262.912L17.5 262.912ZM16.5 263.913C16.5 264.189 16.7238 264.413 17 264.413C17.2761 264.413 17.5 264.189 17.5 263.913L16.5 263.913ZM17.5 268.922C17.5 268.646 17.2761 268.422 17 268.422C16.7238 268.422 16.5 268.646 16.5 268.922L17.5 268.922ZM16.5 269.924C16.5 270.2 16.7238 270.424 17 270.424C17.2761 270.424 17.5 270.2 17.5 269.924L16.5 269.924ZM17.5 274.932C17.5 274.656 17.2761 274.432 17 274.432C16.7238 274.432 16.5 274.656 16.5 274.932L17.5 274.932ZM16.5 275.934C16.5 276.21 16.7238 276.434 17 276.434C17.2761 276.434 17.5 276.21 17.5 275.934L16.5 275.934ZM17.5 280.943C17.5 280.666 17.2761 280.443 17 280.443C16.7238 280.443 16.5 280.666 16.5 280.943L17.5 280.943ZM16.5 281.944C16.5 282.22 16.7238 282.444 17 282.444C17.2761 282.444 17.5 282.22 17.5 281.944L16.5 281.944ZM17.5 286.953C17.5 286.677 17.2761 286.453 17 286.453C16.7238 286.453 16.5 286.677 16.5 286.953L17.5 286.953ZM16.5 287.955C16.5 288.231 16.7238 288.455 17 288.455C17.2761 288.455 17.5 288.231 17.5 287.955L16.5 287.955ZM17.5 292.963C17.5 292.687 17.2761 292.463 17 292.463C16.7238 292.463 16.5 292.687 16.5 292.963L17.5 292.963ZM16.5 293.965C16.5 294.241 16.7238 294.465 17 294.465C17.2761 294.465 17.5 294.241 17.5 293.965L16.5 293.965ZM17.5 298.974C17.5 298.697 17.2761 298.474 17 298.474C16.7238 298.474 16.5 298.697 16.5 298.974L17.5 298.974ZM16.5 299.975C16.5 300.251 16.7238 300.475 17 300.475C17.2761 300.475 17.5 300.251 17.5 299.975L16.5 299.975ZM17.5 304.984C17.5 304.708 17.2761 304.484 17 304.484C16.7238 304.484 16.5 304.708 16.5 304.984L17.5 304.984ZM16.5 305.986C16.5 306.262 16.7238 306.486 17 306.486C17.2761 306.486 17.5 306.262 17.5 305.986L16.5 305.986ZM17.5 310.994C17.5 310.718 17.2761 310.494 17 310.494C16.7238 310.494 16.5 310.718 16.5 310.994L17.5 310.994ZM16.5 311.996C16.5 312.272 16.7238 312.496 17 312.496C17.2761 312.496 17.5 312.272 17.5 311.996L16.5 311.996ZM17.5 317.004C17.5 316.728 17.2761 316.504 17 316.504C16.7238 316.504 16.5 316.728 16.5 317.004L17.5 317.004ZM16.5 318.006C16.5 318.282 16.7238 318.506 17 318.506C17.2761 318.506 17.5 318.282 17.5 318.006L16.5 318.006ZM17.5 323.015C17.5 322.739 17.2761 322.515 17 322.515C16.7238 322.515 16.5 322.739 16.5 323.015L17.5 323.015ZM16.5 324.016C16.5 324.293 16.7238 324.516 17 324.516C17.2761 324.516 17.5 324.293 17.5 324.016L16.5 324.016ZM17.5 329.025C17.5 328.749 17.2761 328.525 17 328.525C16.7238 328.525 16.5 328.749 16.5 329.025L17.5 329.025ZM16.5 330.027C16.5 330.303 16.7238 330.527 17 330.527C17.2761 330.527 17.5 330.303 17.5 330.027L16.5 330.027ZM17.5 335.035C17.5 334.759 17.2761 334.535 17 334.535C16.7238 334.535 16.5 334.759 16.5 335.035L17.5 335.035ZM16.5 336.037C16.5 336.313 16.7238 336.537 17 336.537C17.2761 336.537 17.5 336.313 17.5 336.037L16.5 336.037ZM17.5 341.046C17.5 340.77 17.2761 340.546 17 340.546C16.7238 340.546 16.5 340.77 16.5 341.046L17.5 341.046ZM16.5 342.047C16.5 342.324 16.7238 342.547 17 342.547C17.2761 342.547 17.5 342.324 17.5 342.047L16.5 342.047ZM17.5 347.056C17.5 346.78 17.2761 346.556 17 346.556C16.7238 346.556 16.5 346.78 16.5 347.056L17.5 347.056ZM16.5 348.058C16.5 348.334 16.7238 348.558 17 348.558C17.2761 348.558 17.5 348.334 17.5 348.058L16.5 348.058ZM17.5 353.066C17.5 352.79 17.2761 352.566 17 352.566C16.7238 352.566 16.5 352.79 16.5 353.066L17.5 353.066ZM16.5 354.068C16.5 354.344 16.7238 354.568 17 354.568C17.2761 354.568 17.5 354.344 17.5 354.068L16.5 354.068ZM17.5 359.077C17.5 358.801 17.2761 358.577 17 358.577C16.7238 358.577 16.5 358.801 16.5 359.077L17.5 359.077ZM16.5 360.078C16.5 360.354 16.7238 360.578 17 360.578C17.2761 360.578 17.5 360.354 17.5 360.078L16.5 360.078ZM17.5 365.087C17.5 364.811 17.2761 364.587 17 364.587C16.7238 364.587 16.5 364.811 16.5 365.087L17.5 365.087ZM16.5 366.089C16.5 366.365 16.7238 366.589 17 366.589C17.2761 366.589 17.5 366.365 17.5 366.089L16.5 366.089ZM17.5 371.097C17.5 370.821 17.2761 370.597 17 370.597C16.7238 370.597 16.5 370.821 16.5 371.097L17.5 371.097ZM16.5 372.099C16.5 372.375 16.7238 372.599 17 372.599C17.2761 372.599 17.5 372.375 17.5 372.099L16.5 372.099ZM17.5 377.108C17.5 376.831 17.2761 376.608 17 376.608C16.7238 376.608 16.5 376.831 16.5 377.108L17.5 377.108ZM16.5 378.109C16.5 378.385 16.7238 378.609 17 378.609C17.2761 378.609 17.5 378.385 17.5 378.109L16.5 378.109ZM17.5 383.118C17.5 382.842 17.2761 382.618 17 382.618C16.7238 382.618 16.5 382.842 16.5 383.118L17.5 383.118ZM16.5 384.12C16.5 384.396 16.7238 384.62 17 384.62C17.2761 384.62 17.5 384.396 17.5 384.12L16.5 384.12ZM17.5 389.128C17.5 388.852 17.2761 388.628 17 388.628C16.7238 388.628 16.5 388.852 16.5 389.128L17.5 389.128ZM16.5 390.13C16.5 390.406 16.7238 390.63 17 390.63C17.2761 390.63 17.5 390.406 17.5 390.13L16.5 390.13ZM17.5 395.139C17.5 394.862 17.2761 394.639 17 394.639C16.7238 394.639 16.5 394.862 16.5 395.139L17.5 395.139ZM16.5 396.14C16.5 396.416 16.7238 396.64 17 396.64C17.2761 396.64 17.5 396.416 17.5 396.14L16.5 396.14ZM17.5 401.149C17.5 400.873 17.2761 400.649 17 400.649C16.7238 400.649 16.5 400.873 16.5 401.149L17.5 401.149ZM16.5 402.151C16.5 402.427 16.7238 402.651 17 402.651C17.2761 402.651 17.5 402.427 17.5 402.151L16.5 402.151ZM17.5 407.159C17.5 406.883 17.2761 406.659 17 406.659C16.7238 406.659 16.5 406.883 16.5 407.159L17.5 407.159ZM16.5 408.161C16.5 408.437 16.7238 408.661 17 408.661C17.2761 408.661 17.5 408.437 17.5 408.161L16.5 408.161ZM17.5 413.169C17.5 412.893 17.2761 412.669 17 412.669C16.7238 412.669 16.5 412.893 16.5 413.169L17.5 413.169ZM16.5 414.171C16.5 414.447 16.7238 414.671 17 414.671C17.2761 414.671 17.5 414.447 17.5 414.171L16.5 414.171ZM17.5 419.18C17.5 418.904 17.2761 418.68 17 418.68C16.7238 418.68 16.5 418.904 16.5 419.18L17.5 419.18ZM16.5 420.182C16.5 420.458 16.7238 420.682 17 420.682C17.2761 420.682 17.5 420.458 17.5 420.182L16.5 420.182ZM17.5 425.19C17.5 424.914 17.2761 424.69 17 424.69C16.7238 424.69 16.5 424.914 16.5 425.19L17.5 425.19ZM16.5 426.192C16.5 426.468 16.7238 426.692 17 426.692C17.2761 426.692 17.5 426.468 17.5 426.192L16.5 426.192ZM17.5 431.2C17.5 430.924 17.2761 430.7 17 430.7C16.7238 430.7 16.5 430.924 16.5 431.2L17.5 431.2ZM16.5 432.202C16.5 432.478 16.7238 432.702 17 432.702C17.2761 432.702 17.5 432.478 17.5 432.202L16.5 432.202ZM17.5 437.211C17.5 436.935 17.2761 436.711 17 436.711C16.7238 436.711 16.5 436.935 16.5 437.211L17.5 437.211ZM16.5 438.212C16.5 438.489 16.7238 438.712 17 438.712C17.2761 438.712 17.5 438.489 17.5 438.212L16.5 438.212ZM17.5 443.221C17.5 442.945 17.2761 442.721 17 442.721C16.7238 442.721 16.5 442.945 16.5 443.221L17.5 443.221ZM16.5 444.223C16.5 444.499 16.7238 444.723 17 444.723C17.2761 444.723 17.5 444.499 17.5 444.223L16.5 444.223ZM17.5 449.231C17.5 448.955 17.2761 448.731 17 448.731C16.7238 448.731 16.5 448.955 16.5 449.231L17.5 449.231ZM16.5 450.233C16.5 450.509 16.7238 450.733 17 450.733C17.2761 450.733 17.5 450.509 17.5 450.233L16.5 450.233ZM17.5 455.242C17.5 454.966 17.2761 454.742 17 454.742C16.7238 454.742 16.5 454.966 16.5 455.242L17.5 455.242ZM16.5 456.243C16.5 456.52 16.7238 456.743 17 456.743C17.2761 456.743 17.5 456.52 17.5 456.243L16.5 456.243ZM17.5 461.252C17.5 460.976 17.2761 460.752 17 460.752C16.7238 460.752 16.5 460.976 16.5 461.252L17.5 461.252ZM16.5 462.254C16.5 462.53 16.7238 462.754 17 462.754C17.2761 462.754 17.5 462.53 17.5 462.254L16.5 462.254ZM17.5 467.262C17.5 466.986 17.2761 466.762 17 466.762C16.7238 466.762 16.5 466.986 16.5 467.262L17.5 467.262ZM16.5 468.264C16.5 468.54 16.7238 468.764 17 468.764C17.2761 468.764 17.5 468.54 17.5 468.264L16.5 468.264ZM17.5 473.273C17.5 472.996 17.2761 472.773 17 472.773C16.7238 472.773 16.5 472.996 16.5 473.273L17.5 473.273ZM16.5 474.274C16.5 474.55 16.7238 474.774 17 474.774C17.2761 474.774 17.5 474.55 17.5 474.274L16.5 474.274ZM17.5 479.283C17.5 479.007 17.2761 478.783 17 478.783C16.7238 478.783 16.5 479.007 16.5 479.283L17.5 479.283ZM16.5 480.285C16.5 480.561 16.7238 480.785 17 480.785C17.2761 480.785 17.5 480.561 17.5 480.285L16.5 480.285ZM17.5 485.293C17.5 485.017 17.2761 484.793 17 484.793C16.7238 484.793 16.5 485.017 16.5 485.293L17.5 485.293ZM16.5 486.295C16.5 486.571 16.7238 486.795 17 486.795C17.2761 486.795 17.5 486.571 17.5 486.295L16.5 486.295ZM17.5 491.304C17.5 491.027 17.2761 490.804 17 490.804C16.7238 490.804 16.5 491.027 16.5 491.304L17.5 491.304ZM16.5 492.305C16.5 492.581 16.7238 492.805 17 492.805C17.2761 492.805 17.5 492.581 17.5 492.305L16.5 492.305ZM17.5 497.314C17.5 497.038 17.2761 496.814 17 496.814C16.7238 496.814 16.5 497.038 16.5 497.314L17.5 497.314ZM16.5 498.316C16.5 498.592 16.7238 498.816 17 498.816C17.2761 498.816 17.5 498.592 17.5 498.316L16.5 498.316ZM17.5 503.324C17.5 503.048 17.2761 502.824 17 502.824C16.7238 502.824 16.5 503.048 16.5 503.324L17.5 503.324ZM16.5 504.326C16.5 504.602 16.7238 504.826 17 504.826C17.2761 504.826 17.5 504.602 17.5 504.326L16.5 504.326ZM17.5 509.335C17.5 509.058 17.2761 508.835 17 508.835C16.7238 508.835 16.5 509.058 16.5 509.335L17.5 509.335ZM16.5 510.336C16.5 510.612 16.7238 510.836 17 510.836C17.2761 510.836 17.5 510.612 17.5 510.336L16.5 510.336ZM17.5 515.345C17.5 515.069 17.2761 514.845 17 514.845C16.7238 514.845 16.5 515.069 16.5 515.345L17.5 515.345ZM16.5 516.347C16.5 516.623 16.7238 516.847 17 516.847C17.2761 516.847 17.5 516.623 17.5 516.347L16.5 516.347ZM17.5 521.355C17.5 521.079 17.2761 520.855 17 520.855C16.7238 520.855 16.5 521.079 16.5 521.355L17.5 521.355ZM16.5 522.357C16.5 522.633 16.7238 522.857 17 522.857C17.2761 522.857 17.5 522.633 17.5 522.357L16.5 522.357ZM17.5 527.365C17.5 527.089 17.2761 526.865 17 526.865C16.7238 526.865 16.5 527.089 16.5 527.365L17.5 527.365ZM16.5 528.367C16.5 528.643 16.7238 528.867 17 528.867C17.2761 528.867 17.5 528.643 17.5 528.367L16.5 528.367ZM17.5 533.376C17.5 533.1 17.2761 532.876 17 532.876C16.7238 532.876 16.5 533.1 16.5 533.376L17.5 533.376ZM16.5 534.378C16.5 534.654 16.7238 534.878 17 534.878C17.2761 534.878 17.5 534.654 17.5 534.378L16.5 534.378ZM17.5 539.386C17.5 539.11 17.2761 538.886 17 538.886C16.7238 538.886 16.5 539.11 16.5 539.386L17.5 539.386ZM16.5 540.388C16.5 540.664 16.7238 540.888 17 540.888C17.2761 540.888 17.5 540.664 17.5 540.388L16.5 540.388ZM17.5 545.396C17.5 545.12 17.2761 544.896 17 544.896C16.7238 544.896 16.5 545.12 16.5 545.396L17.5 545.396ZM16.5 546.398C16.5 546.674 16.7238 546.898 17 546.898C17.2761 546.898 17.5 546.674 17.5 546.398L16.5 546.398ZM17.5 551.407C17.5 551.131 17.2761 550.907 17 550.907C16.7238 550.907 16.5 551.131 16.5 551.407L17.5 551.407ZM16.5 552.408C16.5 552.685 16.7238 552.908 17 552.908C17.2761 552.908 17.5 552.685 17.5 552.408L16.5 552.408ZM17.5 557.417C17.5 557.141 17.2761 556.917 17 556.917C16.7238 556.917 16.5 557.141 16.5 557.417L17.5 557.417ZM16.5 558.419C16.5 558.695 16.7238 558.919 17 558.919C17.2761 558.919 17.5 558.695 17.5 558.419L16.5 558.419ZM17.5 563.427C17.5 563.151 17.2761 562.927 17 562.927C16.7238 562.927 16.5 563.151 16.5 563.427L17.5 563.427ZM16.5 564.429C16.5 564.705 16.7238 564.929 17 564.929C17.2761 564.929 17.5 564.705 17.5 564.429L16.5 564.429ZM17.5 569.438C17.5 569.161 17.2761 568.938 17 568.938C16.7238 568.938 16.5 569.161 16.5 569.438L17.5 569.438ZM16.5 570.439C16.5 570.716 16.7238 570.939 17 570.939C17.2761 570.939 17.5 570.716 17.5 570.439L16.5 570.439ZM17.5 575.448C17.5 575.172 17.2761 574.948 17 574.948C16.7238 574.948 16.5 575.172 16.5 575.448L17.5 575.448ZM16.5 576.45C16.5 576.726 16.7238 576.95 17 576.95C17.2761 576.95 17.5 576.726 17.5 576.45L16.5 576.45ZM17.5 581.458C17.5 581.182 17.2761 580.958 17 580.958C16.7238 580.958 16.5 581.182 16.5 581.458L17.5 581.458ZM16.5 582.46C16.5 582.736 16.7238 582.96 17 582.96C17.2761 582.96 17.5 582.736 17.5 582.46L16.5 582.46ZM17.5 587.469C17.5 587.192 17.2761 586.969 17 586.969C16.7238 586.969 16.5 587.192 16.5 587.469L17.5 587.469ZM16.5 588.47C16.5 588.746 16.7238 588.97 17 588.97C17.2761 588.97 17.5 588.746 17.5 588.47L16.5 588.47ZM17.5 593.479C17.5 593.203 17.2761 592.979 17 592.979C16.7238 592.979 16.5 593.203 16.5 593.479L17.5 593.479ZM16.5 594.481C16.5 594.757 16.7238 594.981 17 594.981C17.2761 594.981 17.5 594.757 17.5 594.481L16.5 594.481ZM17.5 599.489C17.5 599.213 17.2761 598.989 17 598.989C16.7238 598.989 16.5 599.213 16.5 599.489L17.5 599.489ZM16.5 600.491C16.5 600.767 16.7238 600.991 17 600.991C17.2761 600.991 17.5 600.767 17.5 600.491L16.5 600.491ZM17.5 605.5C17.5 605.223 17.2761 605 17 605C16.7238 605 16.5 605.223 16.5 605.5L17.5 605.5ZM16.5 23L16.5 23.5009L17.5 23.5009L17.5 23L16.5 23ZM16.5 28.5095L16.5 29.5112L17.5 29.5112L17.5 28.5095L16.5 28.5095ZM16.5 34.5198L16.5 35.5215L17.5 35.5215L17.5 34.5198L16.5 34.5198ZM16.5 40.5301L16.5 41.5318L17.5 41.5318L17.5 40.5301L16.5 40.5301ZM16.5 46.5404L16.5 47.5421L17.5 47.5421L17.5 46.5404L16.5 46.5404ZM16.5 52.5507L16.5 53.5524L17.5 53.5524L17.5 52.5507L16.5 52.5507ZM16.5 58.561L16.5 59.5627L17.5 59.5627L17.5 58.561L16.5 58.561ZM16.5 64.5713L16.5 65.573L17.5 65.573L17.5 64.5713L16.5 64.5713ZM16.5 70.5816L16.5 71.5833L17.5 71.5833L17.5 70.5816L16.5 70.5816ZM16.5 76.5919L16.5 77.5936L17.5 77.5936L17.5 76.5919L16.5 76.5919ZM16.5 82.6022L16.5 83.6039L17.5 83.6039L17.5 82.6022L16.5 82.6022ZM16.5 88.6125L16.5 89.6143L17.5 89.6143L17.5 88.6125L16.5 88.6125ZM16.5 94.6228L16.5 95.6246L17.5 95.6246L17.5 94.6228L16.5 94.6228ZM16.5 100.633L16.5 101.635L17.5 101.635L17.5 100.633L16.5 100.633ZM16.5 106.643L16.5 107.645L17.5 107.645L17.5 106.643L16.5 106.643ZM16.5 112.654L16.5 113.655L17.5 113.655L17.5 112.654L16.5 112.654ZM16.5 118.664L16.5 119.666L17.5 119.666L17.5 118.664L16.5 118.664ZM16.5 124.674L16.5 125.676L17.5 125.676L17.5 124.674L16.5 124.674ZM16.5 130.685L16.5 131.686L17.5 131.686L17.5 130.685L16.5 130.685ZM16.5 136.695L16.5 137.697L17.5 137.697L17.5 136.695L16.5 136.695ZM16.5 142.705L16.5 143.707L17.5 143.707L17.5 142.705L16.5 142.705ZM16.5 148.716L16.5 149.717L17.5 149.717L17.5 148.716L16.5 148.716ZM16.5 154.726L16.5 155.728L17.5 155.728L17.5 154.726L16.5 154.726ZM16.5 160.736L16.5 161.738L17.5 161.738L17.5 160.736L16.5 160.736ZM16.5 166.747L16.5 167.748L17.5 167.748L17.5 166.747L16.5 166.747ZM16.5 172.757L16.5 173.759L17.5 173.759L17.5 172.757L16.5 172.757ZM16.5 178.767L16.5 179.769L17.5 179.769L17.5 178.767L16.5 178.767ZM16.5 184.778L16.5 185.779L17.5 185.779L17.5 184.778L16.5 184.778ZM16.5 190.788L16.5 191.79L17.5 191.79L17.5 190.788L16.5 190.788ZM16.5 196.798L16.5 197.8L17.5 197.8L17.5 196.798L16.5 196.798ZM16.5 202.808L16.5 203.81L17.5 203.81L17.5 202.808L16.5 202.808ZM16.5 208.819L16.5 209.82L17.5 209.82L17.5 208.819L16.5 208.819ZM16.5 214.829L16.5 215.831L17.5 215.831L17.5 214.829L16.5 214.829ZM16.5 220.839L16.5 221.841L17.5 221.841L17.5 220.839L16.5 220.839ZM16.5 226.85L16.5 227.851L17.5 227.851L17.5 226.85L16.5 226.85ZM16.5 232.86L16.5 233.862L17.5 233.862L17.5 232.86L16.5 232.86ZM16.5 238.87L16.5 239.872L17.5 239.872L17.5 238.87L16.5 238.87ZM16.5 244.881L16.5 245.882L17.5 245.882L17.5 244.881L16.5 244.881ZM16.5 250.891L16.5 251.893L17.5 251.893L17.5 250.891L16.5 250.891ZM16.5 256.901L16.5 257.903L17.5 257.903L17.5 256.901L16.5 256.901ZM16.5 262.912L16.5 263.913L17.5 263.913L17.5 262.912L16.5 262.912ZM16.5 268.922L16.5 269.924L17.5 269.924L17.5 268.922L16.5 268.922ZM16.5 274.932L16.5 275.934L17.5 275.934L17.5 274.932L16.5 274.932ZM16.5 280.943L16.5 281.944L17.5 281.944L17.5 280.943L16.5 280.943ZM16.5 286.953L16.5 287.955L17.5 287.955L17.5 286.953L16.5 286.953ZM16.5 292.963L16.5 293.965L17.5 293.965L17.5 292.963L16.5 292.963ZM16.5 298.974L16.5 299.975L17.5 299.975L17.5 298.974L16.5 298.974ZM16.5 304.984L16.5 305.986L17.5 305.986L17.5 304.984L16.5 304.984ZM16.5 310.994L16.5 311.996L17.5 311.996L17.5 310.994L16.5 310.994ZM16.5 317.004L16.5 318.006L17.5 318.006L17.5 317.004L16.5 317.004ZM16.5 323.015L16.5 324.016L17.5 324.016L17.5 323.015L16.5 323.015ZM16.5 329.025L16.5 330.027L17.5 330.027L17.5 329.025L16.5 329.025ZM16.5 335.035L16.5 336.037L17.5 336.037L17.5 335.035L16.5 335.035ZM16.5 341.046L16.5 342.047L17.5 342.047L17.5 341.046L16.5 341.046ZM16.5 347.056L16.5 348.058L17.5 348.058L17.5 347.056L16.5 347.056ZM16.5 353.066L16.5 354.068L17.5 354.068L17.5 353.066L16.5 353.066ZM16.5 359.077L16.5 360.078L17.5 360.078L17.5 359.077L16.5 359.077ZM16.5 365.087L16.5 366.089L17.5 366.089L17.5 365.087L16.5 365.087ZM16.5 371.097L16.5 372.099L17.5 372.099L17.5 371.097L16.5 371.097ZM16.5 377.108L16.5 378.109L17.5 378.109L17.5 377.108L16.5 377.108ZM16.5 383.118L16.5 384.12L17.5 384.12L17.5 383.118L16.5 383.118ZM16.5 389.128L16.5 390.13L17.5 390.13L17.5 389.128L16.5 389.128ZM16.5 395.139L16.5 396.14L17.5 396.14L17.5 395.139L16.5 395.139ZM16.5 401.149L16.5 402.151L17.5 402.151L17.5 401.149L16.5 401.149ZM16.5 407.159L16.5 408.161L17.5 408.161L17.5 407.159L16.5 407.159ZM16.5 413.169L16.5 414.171L17.5 414.171L17.5 413.169L16.5 413.169ZM16.5 419.18L16.5 420.182L17.5 420.182L17.5 419.18L16.5 419.18ZM16.5 425.19L16.5 426.192L17.5 426.192L17.5 425.19L16.5 425.19ZM16.5 431.2L16.5 432.202L17.5 432.202L17.5 431.2L16.5 431.2ZM16.5 437.211L16.5 438.212L17.5 438.212L17.5 437.211L16.5 437.211ZM16.5 443.221L16.5 444.223L17.5 444.223L17.5 443.221L16.5 443.221ZM16.5 449.231L16.5 450.233L17.5 450.233L17.5 449.231L16.5 449.231ZM16.5 455.242L16.5 456.243L17.5 456.243L17.5 455.242L16.5 455.242ZM16.5 461.252L16.5 462.254L17.5 462.254L17.5 461.252L16.5 461.252ZM16.5 467.262L16.5 468.264L17.5 468.264L17.5 467.262L16.5 467.262ZM16.5 473.273L16.5 474.274L17.5 474.274L17.5 473.273L16.5 473.273ZM16.5 479.283L16.5 480.285L17.5 480.285L17.5 479.283L16.5 479.283ZM16.5 485.293L16.5 486.295L17.5 486.295L17.5 485.293L16.5 485.293ZM16.5 491.304L16.5 492.305L17.5 492.305L17.5 491.304L16.5 491.304ZM16.5 497.314L16.5 498.316L17.5 498.316L17.5 497.314L16.5 497.314ZM16.5 503.324L16.5 504.326L17.5 504.326L17.5 503.324L16.5 503.324ZM16.5 509.335L16.5 510.336L17.5 510.336L17.5 509.335L16.5 509.335ZM16.5 515.345L16.5 516.347L17.5 516.347L17.5 515.345L16.5 515.345ZM16.5 521.355L16.5 522.357L17.5 522.357L17.5 521.355L16.5 521.355ZM16.5 527.365L16.5 528.367L17.5 528.367L17.5 527.365L16.5 527.365ZM16.5 533.376L16.5 534.378L17.5 534.378L17.5 533.376L16.5 533.376ZM16.5 539.386L16.5 540.388L17.5 540.388L17.5 539.386L16.5 539.386ZM16.5 545.396L16.5 546.398L17.5 546.398L17.5 545.396L16.5 545.396ZM16.5 551.407L16.5 552.408L17.5 552.408L17.5 551.407L16.5 551.407ZM16.5 557.417L16.5 558.419L17.5 558.419L17.5 557.417L16.5 557.417ZM16.5 563.427L16.5 564.429L17.5 564.429L17.5 563.427L16.5 563.427ZM16.5 569.438L16.5 570.439L17.5 570.439L17.5 569.438L16.5 569.438ZM16.5 575.448L16.5 576.45L17.5 576.45L17.5 575.448L16.5 575.448ZM16.5 581.458L16.5 582.46L17.5 582.46L17.5 581.458L16.5 581.458ZM16.5 587.469L16.5 588.47L17.5 588.47L17.5 587.469L16.5 587.469ZM16.5 593.479L16.5 594.481L17.5 594.481L17.5 593.479L16.5 593.479ZM16.5 599.489L16.5 600.491L17.5 600.491L17.5 599.489L16.5 599.489ZM16.5 605.5L16.5 606L17.5 606L17.5 605.5L16.5 605.5Z" fill="#424247"/>
<path d="M4.50962 603.789L17 596.577L29.4904 603.789V618.211L17 625.423L4.50962 618.211V603.789Z" fill="#06060F" stroke="#424247"/>
<path d="M17 604L23.0622 607.5V614.5L17 618L10.9378 614.5V607.5L17 604Z" fill="#424247"/>
<path d="M30.8564 9L17 33L3.14359 9L30.8564 9Z" fill="#06060F" stroke="#424247"/>
<path d="M17 24L10.9378 13.5L23.0622 13.5L17 24Z" fill="#424247"/>
<rect x="5.5" y="124.5" width="23" height="23" fill="#06060F" stroke="#424247"/>
<rect x="12" y="131" width="10" height="10" fill="#424247"/>
<rect x="0.707107" y="368.971" width="23" height="23" transform="rotate(-45 0.707107 368.971)" fill="#06060F" stroke="#424247"/>
<rect x="9.91162" y="368.971" width="9.98283" height="9.98283" transform="rotate(-45 9.91162 368.971)" fill="#424247"/>
<circle cx="17" cy="250" r="11.5" fill="#06060F" stroke="#424247"/>
<circle cx="17" cy="250" r="6" fill="#424247"/>
<path d="M17 476.83L22.1556 483.656L22.2474 483.778L22.3913 483.827L30.4768 486.621L25.5776 493.634L25.4904 493.759L25.4876 493.911L25.3291 502.464L17.1457 499.972L17 499.927L16.8543 499.972L8.67087 502.464L8.51243 493.911L8.50961 493.759L8.4224 493.634L3.52319 486.621L11.6087 483.827L11.7526 483.778L11.8444 483.656L17 476.83Z" fill="#06060F" stroke="#424247"/>
<path d="M17 485L19.2218 487.942L22.7063 489.146L20.595 492.168L20.5267 495.854L17 494.78L13.4733 495.854L13.405 492.168L11.2937 489.146L14.7782 487.942L17 485Z" fill="#424247"/>
</svg>
